<svg width="24" height="20" viewBox="0 0 24 20" fill="none" xmlns="http://www.w3.org/2000/svg">
<path fill-rule="evenodd" clip-rule="evenodd" d="M24 2.36762C23.1038 2.77565 22.1502 3.04359 21.1727 3.16206C22.1897 2.53806 22.9702 1.54844 23.3379 0.369811C22.3854 0.947686 21.3335 1.36806 20.2091 1.59344C19.3132 0.612811 18.0326 6.10352e-05 16.6155 6.10352e-05C13.898 6.10352e-05 11.6936 2.26075 11.6936 5.04887C11.6936 5.4445 11.7358 5.82887 11.8204 6.19881C7.72817 5.9875 4.10061 3.97975 1.66874 0.921623C1.24499 1.66975 1.00236 2.53787 1.00236 3.46262C1.00236 5.2135 1.87161 6.75887 3.19292 7.66487C2.38724 7.6405 1.62636 7.41062 0.961675 7.03487V7.09675C0.961675 9.54362 2.65911 11.5849 4.91305 12.0473C4.50055 12.1658 4.06499 12.2251 3.61555 12.2251C3.30437 12.2254 2.9939 12.1954 2.68855 12.1354C3.31536 14.1406 5.13261 15.601 7.28793 15.6398C5.60305 16.9949 3.47886 17.8022 1.1728 17.8022C0.7753 17.8022 0.382487 17.7792 -0.0020752 17.7329C2.17724 19.1629 4.76643 19.9994 7.54574 19.9994C16.6039 19.9994 21.5552 12.307 21.5552 5.63462C21.5552 5.41644 21.5509 5.19827 21.5424 4.98025C22.505 4.26812 23.3405 3.37975 23.9983 2.36706" fill="#00AAEC"/>
</svg>
